<svg xmlns="http://www.w3.org/2000/svg" viewBox="0 0 398 398"><defs><style>.cls-1,.cls-2{fill:none;stroke:#fff;stroke-miterlimit:10;stroke-width:14px;}.cls-2{stroke-linecap:round;}</style></defs><g id="Capa_2" data-name="Capa 2"><g id="Capa_1-2" data-name="Capa 1"><circle class="cls-1" cx="199" cy="199" r="192"/><path class="cls-1" d="M125.42,271V167.91h-23a34.33,34.33,0,0,0-34.34,34.34v34.38A34.34,34.34,0,0,0,102.4,271Z"/><path class="cls-1" d="M272.58,271V167.91h23a34.33,34.33,0,0,1,34.34,34.34v34.38A34.34,34.34,0,0,1,295.6,271Z"/><path class="cls-1" d="M105.5,162.2h0a79.87,79.87,0,0,1,79.87-79.86h27.52a79.87,79.87,0,0,1,79.86,79.86h0"/><path class="cls-2" d="M285.52,277.87h0a37.79,37.79,0,0,1-37.79,37.79H216V287.83"/></g></g></svg>