<svg xmlns="http://www.w3.org/2000/svg" viewBox="0 0 384 384"><defs><style>.cls-1{fill:#fff;}</style></defs><g id="Capa_2" data-name="Capa 2"><g id="Capa_1-2" data-name="Capa 1"><path class="cls-1" d="M384,180.75v22.5q-.47,4-.92,8.09c-4.59,41.32-20.37,77.77-48.22,108.67-29.57,32.81-66.2,53.29-109.79,61-7.22,1.28-14.54,2-21.82,3h-22.5c-5.31-.66-10.64-1.24-15.94-2a192.35,192.35,0,0,1-69.28-24,7.46,7.46,0,0,0-5.2-.54c-9.83,2.83-19.58,5.94-29.36,8.94-14.43,4.43-28.85,8.91-43.31,13.24-6.69,2-11.45-2.71-9.79-9.48.21-.85.44-1.69.68-2.54,6.42-23.2,12.78-46.43,19.34-69.6a9.62,9.62,0,0,0-1-8.38A182.24,182.24,0,0,1,3.4,227.32C1.93,219.1,1.11,210.78,0,202.5V180.75q.47-4,.92-8.09C5.51,131.34,21.29,94.89,49.14,64,78.71,31.18,115.34,10.7,158.93,3c7.22-1.28,14.54-2,21.82-3h22.5a21,21,0,0,0,2.89.62c30,2.12,58.14,10.71,83.77,26.42C339.65,57.52,370.26,101.47,381,159,382.36,166.16,383,173.49,384,180.75ZM25.49,361.7c1.9-.48,3.21-.76,4.48-1.15,17.77-5.46,35.7-10.45,53.22-16.61,8.53-3,15-1.68,22.7,2.66,35.11,19.91,73,26.5,112.8,20.55,37.55-5.61,70.27-21.79,97.12-48.68,42.37-42.42,59.51-93.85,51.29-153.13-5.22-37.6-21.72-70.27-48.61-97.13C276.07,25.83,224.66,8.76,165.36,16.88c-34.11,4.67-64.27,19-90,42-36.75,32.66-57.09,73.71-60.16,122.8-2.32,37.17,6.55,71.85,26.24,103.58a15,15,0,0,1,1.81,13.07C37.21,319.13,31.51,340.08,25.49,361.7Z"/><path class="cls-1" d="M243.83,308.44c-34.86-1.19-65.63-13.47-93-34.39-33-25.24-57.28-57.44-74-95.48C64.58,150.76,67.29,124,82,98.2,86.14,91,91.59,84.52,96.57,77.82c1-1.35,2.48-2.88,4-3.24,8.28-2,16.71-3.59,25.12-1.14a12.28,12.28,0,0,1,6.45,4.64c10.07,15.52,19.05,31.64,25.34,49.11,2.72,7.54.81,14.66-3.31,21.06a81.46,81.46,0,0,1-10.4,13.2c-3.15,3.2-3.49,6.24-1.31,9.57,4.71,7.17,9,14.76,14.71,21.08,16.71,18.51,36.65,33.1,58.37,45.24,6.34,3.54,7.42,3.53,12.15-1.8,6.61-7.47,13-15.18,19.09-23,5.43-7,11.82-9.21,20-5.85a69.08,69.08,0,0,1,9.84,5.37c13.08,8,26.1,16.18,39.16,24.24,5,3.11,5.94,5.28,4.81,11.22-2.5,13.16-6.84,25.57-15.18,36.24-11.56,14.78-27.37,21.61-45.54,23.71C254.57,308,249.18,308.11,243.83,308.44ZM260,219.62c-1.59,2.18-2.6,3.77-3.81,5.19-6.14,7.22-11.68,15.11-18.63,21.44-12.15,11.06-16.38,10.34-27.81,4.41-27.37-14.2-51.34-32.75-70.73-56.88a66.53,66.53,0,0,1-12.19-22.62c-2-6.53-1.79-12.29,3.85-17.37,3.67-3.3,6.61-7.46,9.65-11.41,3.52-4.57,4.67-9.48,1.77-15-6.29-11.91-12.59-23.82-18.55-35.9-2-4-4.67-4.71-8.64-4.49-5.44.3-9.79,1.85-12.58,7-3.94,7.21-8.83,14-12.15,21.44-7.95,17.91-8.73,36.23-.94,54.53,14.38,33.78,35.17,63,63.19,86.74,29,24.54,62.17,38.1,100.69,36.53,12.32-.5,24-3.45,33.84-11.36,10.4-8.32,15.3-19.78,18-32.36.21-1-.88-2.74-1.86-3.36C291.49,238.65,279.74,231.3,268,224,265.47,222.42,262.8,221.13,260,219.62Z"/></g></g></svg>