<svg xmlns="http://www.w3.org/2000/svg" viewBox="0 0 398 398"><defs><style>.cls-1{fill:#fff;}.cls-2{fill:none;stroke:#fff;stroke-miterlimit:10;stroke-width:14px;}</style></defs><g id="Capa_2" data-name="Capa 2"><g id="Capa_1-2" data-name="Capa 1"><path class="cls-1" d="M247.76,315.44c-34.86-1.19-65.63-13.47-93-34.39-33-25.24-57.28-57.44-74-95.48C68.51,157.76,71.22,131,86,105.2,90.07,98,95.52,91.52,100.5,84.82c1-1.35,2.48-2.88,4-3.24,8.28-2,16.71-3.59,25.12-1.14a12.28,12.28,0,0,1,6.45,4.64c10.07,15.52,19.05,31.64,25.34,49.11,2.72,7.54.81,14.66-3.31,21.06a81.46,81.46,0,0,1-10.4,13.2c-3.15,3.2-3.49,6.24-1.31,9.57,4.71,7.17,9,14.76,14.71,21.08,16.71,18.51,36.65,33.1,58.37,45.24,6.34,3.54,7.42,3.53,12.15-1.8,6.61-7.47,13-15.18,19.09-23,5.43-7,11.82-9.21,20-5.85a69.08,69.08,0,0,1,9.84,5.37c13.08,8,26.1,16.18,39.16,24.24,5,3.11,5.94,5.28,4.81,11.22-2.5,13.16-6.84,25.57-15.18,36.24-11.56,14.78-27.37,21.61-45.54,23.71C258.5,315,253.11,315.11,247.76,315.44ZM264,226.62c-1.59,2.18-2.6,3.77-3.81,5.19-6.14,7.22-11.68,15.11-18.63,21.44-12.15,11.06-16.38,10.34-27.81,4.41-27.37-14.2-51.34-32.75-70.73-56.88a66.53,66.53,0,0,1-12.19-22.62c-1.95-6.53-1.79-12.29,3.85-17.37,3.67-3.3,6.61-7.46,9.65-11.41,3.52-4.57,4.67-9.48,1.77-15-6.29-11.91-12.59-23.82-18.55-35.9-2-4-4.67-4.71-8.64-4.49-5.44.3-9.79,1.85-12.58,7-3.94,7.21-8.83,14-12.15,21.44-8,17.91-8.73,36.23-.94,54.53,14.38,33.78,35.17,63,63.19,86.74,29,24.54,62.17,38.1,100.69,36.53,12.32-.5,24-3.45,33.84-11.36,10.4-8.32,15.3-19.78,18-32.36.21-1-.88-2.74-1.86-3.36-11.67-7.48-23.42-14.83-35.19-22.15C269.4,229.42,266.73,228.13,264,226.62Z"/><circle class="cls-2" cx="199" cy="199" r="192"/></g></g></svg>